<svg width="500" height="422" viewBox="0 0 500 422" fill="none" xmlns="http://www.w3.org/2000/svg">
<path fill-rule="evenodd" clip-rule="evenodd" d="M420.281 229.71C419.14 221.302 416.858 209.285 415.271 203.357C414.973 202.216 414.366 199.724 413.919 197.814C413.473 195.904 412.865 193.411 412.555 192.258C412.258 191.117 411.625 188.389 411.166 186.194C410.707 183.999 410.075 181.345 409.765 180.303C409.467 179.249 408.822 176.756 408.339 174.747C407.867 172.751 407.247 170.171 406.975 169.03C406.168 165.794 404.842 158.737 404.085 153.777C403.713 151.296 403.341 149.077 403.254 148.841C402.733 147.427 402.374 134.877 402.709 129.681C403.068 124.001 404.172 115.208 404.78 113.212C404.953 112.629 405.263 111.228 405.474 110.087C405.883 107.892 407.049 103.626 407.557 102.46C407.719 102.075 408.103 100.823 408.413 99.682C408.711 98.5411 409.281 96.9041 409.678 96.0484C410.075 95.1803 410.67 93.7045 411.005 92.7496C412.456 88.5952 417.044 80.1623 419.736 76.7271C420.616 75.5986 421.323 74.5445 421.323 74.3956C421.323 74.0608 416.586 68.6414 414.936 67.0913C413.981 66.1984 407.123 58.4227 401.134 51.4532C395.528 44.9301 387.814 36.2987 376.219 23.575C374.57 21.7644 372.536 19.4949 371.705 18.5524C370.874 17.5975 369.175 15.7125 367.935 14.3731C366.707 13.0338 364.463 10.5907 362.95 8.94137L360.209 5.94024L359.167 6.4859C358.585 6.78353 357.022 7.68883 355.695 8.48251C354.368 9.2886 352.359 10.3055 351.218 10.7396C350.09 11.1736 348.849 11.6573 348.465 11.8185C348.081 11.9797 346.072 12.7238 343.988 13.4927C340.565 14.7452 338.42 15.3281 330.545 17.1139C326.341 18.0812 318.776 18.478 308.843 18.2424C303.733 18.1308 298.698 17.8827 297.644 17.6967C279.786 14.6088 267.087 10.0327 254.823 2.28184C252.826 1.02931 250.842 0 250.395 0C249.949 0 248.981 0.409242 248.237 0.917697C247.506 1.41375 246.03 2.33146 244.976 2.93912C243.909 3.54679 241.578 4.91093 239.767 5.95265C229.846 11.7441 218.164 15.3777 202.042 17.6967C195.383 18.6516 174.97 18.416 170.903 17.3495C170.221 17.1635 167.802 16.6178 165.533 16.1341C159.593 14.8444 148.32 11.0124 143.446 8.63133C141.139 7.50281 139.118 6.58511 138.932 6.58511C138.535 6.58511 134.219 11.0496 129.358 16.469C127.473 18.5648 124.844 21.4543 123.517 22.8929C110.955 36.4227 95.7753 53.549 89.7359 61.0022C88.7934 62.1679 87.5532 63.6933 86.9828 64.4001C86.4123 65.0946 84.2793 67.5749 82.2455 69.894C80.2117 72.2254 78.5375 74.222 78.5375 74.3336C78.5375 74.4452 79.3312 75.5242 80.2861 76.7147C81.241 77.9052 82.5803 79.8894 83.25 81.1296C84.825 84.0191 88.533 91.4475 88.533 91.7203C88.533 91.9063 89.5127 94.2254 90.2691 95.8748C90.7652 96.9165 92.1169 101.282 93.3447 105.746C93.9523 107.941 94.5724 110.124 94.7336 110.608C95.0189 111.414 96.259 117.986 97.1147 123.133C97.6727 126.518 97.5983 140.668 96.9907 144.612C96.2342 149.597 94.8204 157.249 94.0515 160.535C93.6671 162.16 93.047 164.814 92.6626 166.426C91.4101 171.821 90.3187 176.285 89.7607 178.393C89.4631 179.534 88.843 182.188 88.3841 184.284C87.9253 186.392 87.2928 188.959 86.9952 190.013C86.6851 191.055 86.0651 193.635 85.6186 195.73C85.1722 197.826 84.4653 200.877 84.0561 202.489C83.6468 204.114 83.0268 207.003 82.6671 208.913C82.3199 210.81 81.7122 213.861 81.3402 215.672C80.2861 220.632 78.9343 231.347 78.1654 240.685C77.3097 251.053 78.8227 269.221 81.4394 279.985C81.7122 281.138 82.2579 283.47 82.6547 285.194C83.5724 289.199 86.7472 298.922 87.5284 300.1C87.6525 300.286 87.9501 301.067 88.1981 301.824C88.4337 302.58 89.2398 304.49 89.9591 306.065C90.6908 307.64 91.286 309.041 91.286 309.165C91.286 309.5 95.949 318.02 97.4371 320.389C97.6727 320.773 97.9456 321.195 98.2184 321.629C99.5825 323.762 101.356 326.453 103.129 329.07H112.902C112.716 328.834 112.53 328.611 112.344 328.387C110.384 326.006 108.784 323.886 107.247 321.629C106.366 320.339 105.51 319 104.617 317.536C102.187 313.58 98.2928 305.619 96.6062 301.142C96.0978 299.802 95.4901 298.24 95.2421 297.669C94.0267 294.767 91.0256 284.884 89.7359 279.464C86.8712 267.559 85.5318 252.243 86.4247 241.764C86.6479 239.135 86.9952 235.117 87.1936 232.835C87.392 230.541 87.9377 226.56 88.4089 223.993C88.8802 221.414 89.5003 217.978 89.7731 216.366C90.3063 213.291 91.1372 209.558 92.5758 203.704C93.047 201.795 93.7911 198.756 94.2252 196.946C94.6716 195.135 95.3661 192.407 95.7753 190.881C96.1846 189.356 96.8046 186.938 97.1395 185.499C97.4867 184.073 98.0324 181.965 98.3548 180.824C98.6896 179.683 99.2973 177.104 99.7314 175.095C100.153 173.098 100.897 170.208 101.393 168.683C102.261 165.967 102.919 162.755 103.873 156.555C104.146 154.831 104.444 153.107 104.531 152.71C104.63 152.313 105.039 149.659 105.436 146.819C106.044 142.566 106.13 140.768 105.957 136.787C105.523 127.511 103.154 111.513 101.269 105.238C100.872 103.898 100.24 101.716 99.8678 100.376C99.4957 99.0371 99.0617 97.6357 98.8881 97.2513C98.7269 96.8793 98.2308 95.6267 97.8092 94.4858C95.4405 88.1363 92.0301 81.0304 89.5251 77.1983C88.7934 76.0698 88.1857 75.0653 88.1857 74.9537C88.1857 74.8421 89.9343 72.9571 92.0673 70.7496C94.2004 68.5422 98.3424 63.9537 101.282 60.5433C104.221 57.133 106.775 54.169 106.974 53.9582C108.115 52.6933 115.134 44.558 116.436 42.9706C117.986 41.0856 120.987 37.7497 124.695 33.8061C127.399 30.9289 135.931 21.3675 137.766 19.1477C139.254 17.3619 139.316 17.3371 141.177 17.3371C142.64 17.3371 143.632 17.6099 145.517 18.5276C153.218 22.31 163.722 24.9887 176.21 26.3528C179.708 26.7373 194.23 26.7373 198.086 26.3528C205.192 25.6584 210.389 24.7779 219.441 22.7317C222.157 22.124 230.541 19.3585 233.393 18.1308C236.816 16.6674 244.976 12.5254 247.01 11.2232C248.337 10.3799 249.168 10.0699 249.788 10.1815C250.271 10.2807 252.677 11.496 255.145 12.885C257.6 14.2863 260.143 15.6877 260.8 16.0101C263.082 17.1262 268.886 19.3213 270.213 19.5693C270.957 19.6933 272.891 20.2638 274.528 20.8343C279.625 22.5828 288.567 24.6415 294.742 25.4972C301.898 26.4893 304.738 26.6753 312.811 26.6629C323.253 26.6505 328.189 26.1172 338.135 23.9222C340.789 23.3393 343.418 22.7565 343.988 22.6448C345.65 22.31 352.694 19.5197 355.807 17.9819C358.312 16.7418 358.783 16.6054 359.428 16.9774C360.172 17.4115 364.587 22.2356 366.211 24.4058C367.513 26.1544 370.167 29.2548 377.856 37.9853C381.713 42.363 385.582 46.7902 386.475 47.832C387.356 48.8737 388.794 50.5107 389.675 51.4656C397.004 59.5636 400.265 63.0608 405.573 68.4926C408.934 71.9278 411.687 74.8421 411.687 74.9785C411.687 75.1025 411.005 76.1938 410.187 77.3844C407.52 81.2784 404.097 88.2107 401.828 94.3122C401.369 95.5523 400.848 96.8793 400.662 97.2513C400.489 97.6357 400.092 98.9627 399.794 100.203C399.497 101.443 399.125 102.77 398.951 103.154C398.12 105.064 396.297 113.72 395.454 119.797C394.598 125.898 394.375 145.902 395.106 150.999C396.657 161.949 397.5 166.848 398.405 170.432C398.889 172.329 399.571 175.293 399.931 177.004C400.29 178.728 400.923 181.382 401.332 182.907C401.729 184.433 402.274 186.615 402.535 187.756C402.783 188.897 403.639 192.332 404.432 195.383C407.892 208.715 408.909 213.055 410.298 220.31C410.881 223.336 411.414 225.915 411.476 226.027C411.551 226.151 411.861 228.817 412.171 231.967C412.493 235.117 412.89 238.924 413.076 240.425C413.708 245.708 413.473 256.249 412.53 264.421C412.059 268.588 411.526 272.544 411.34 273.214C411.166 273.884 410.621 276.389 410.137 278.77C408.86 285.008 407.632 289.398 405.238 296.28C403.304 301.836 402.758 302.965 396.731 314.039C395.677 315.986 394.548 318.243 394.226 319.062C393.916 319.855 393.469 320.761 392.986 321.629C392.118 323.216 391.163 324.642 390.766 324.791C390.481 324.903 389.017 326.577 387.517 328.499C387.368 328.685 387.219 328.871 387.07 329.07H397.103C398.294 327.197 399.509 325.25 400.141 324.196C400.575 323.464 401.158 322.497 401.716 321.629C402.088 321.021 402.448 320.463 402.733 320.041C404.073 318.02 407.743 310.976 409.418 307.206C411.699 302.084 415.792 290.427 416.66 286.583C416.92 285.429 417.454 283.098 417.863 281.374C418.26 279.663 418.818 276.934 419.103 275.31C419.388 273.685 419.835 271.118 420.12 269.58C421.831 260.118 421.906 241.665 420.281 229.71ZM310.976 388.621C310.257 388.956 309.674 389.204 309.302 389.352C306.412 390.493 297.607 393.594 295.412 394.226C291.22 395.454 283.271 397.475 280.419 398.046C278.621 398.405 275.992 399.026 274.565 399.435C273.152 399.844 270.671 400.551 269.059 400.997C263.838 402.461 257.241 405.958 252.627 409.715C251.846 410.36 250.904 410.881 250.532 410.881C250.16 410.881 248.895 410.1 247.704 409.133C244.901 406.863 242.148 405.09 239.767 404.023C238.726 403.552 237.101 402.82 236.158 402.386C233.74 401.283 226.138 399.063 221.376 398.058C215.175 396.768 204.82 393.941 199.116 391.994C196.239 391.002 193.2 389.861 190.112 388.621C184.581 386.376 178.889 383.809 173.73 381.18H157.422C160.225 382.929 163.053 384.578 165.706 386.004C167.84 387.157 169.34 387.951 170.642 388.621C172.961 389.824 174.623 390.58 178.021 392.093C187.781 396.434 187.024 396.136 196.015 399.199C199.971 400.551 206.296 402.473 208.59 403.031C209.731 403.316 213.142 404.184 216.168 404.978C219.206 405.759 222.542 406.628 223.584 406.9C227.664 407.93 233.542 410.187 236.345 411.799C239.271 413.473 242.905 416.164 247.382 419.984C249.515 421.807 250.904 422.427 251.201 421.708C251.301 421.447 254.314 418.855 257.464 416.301C258.208 415.705 259.287 414.812 259.882 414.329C263.268 411.526 270.225 408.587 277.839 406.727C280.109 406.169 284.921 405.003 288.517 404.135C294.966 402.572 300.484 400.985 305.569 399.224C311.497 397.165 312.749 396.694 315.043 395.69C316.37 395.107 319.471 393.755 321.939 392.676C324.171 391.696 327.234 390.208 330.285 388.621C334.464 386.463 338.668 384.144 340.776 382.755C341.297 382.42 342.277 381.788 343.256 381.18H326.242C321.356 383.673 314.448 387.046 310.976 388.621Z" fill="#050E1A"/>
<path d="M209.583 310.183L193.932 321.629L183.763 329.07H173.73L176.136 321.629L183.664 298.302C192.977 300.931 201.695 304.974 209.583 310.183Z" fill="#050E1A"/>
<path d="M325.424 329.07H315.391L305.21 321.629L289.435 310.096C297.36 304.887 306.115 300.844 315.465 298.24L323.018 321.629L325.424 329.07Z" fill="#050E1A"/>
<path d="M190.349 187.545C194.317 200.901 202.614 212.36 213.576 220.31C203.73 223.782 194.54 228.618 186.207 234.608L127.015 191.328C125.39 190.137 126.221 187.545 128.243 187.545H190.349Z" fill="#050E1A"/>
<path d="M370.9 187.546C372.909 187.546 373.752 190.137 372.127 191.328L313.072 234.509C304.801 228.582 295.673 223.77 285.901 220.322C296.888 212.373 305.185 200.902 309.166 187.533H370.912L370.9 187.546Z" fill="#050E1A"/>
<path d="M247.593 100.265C248.213 98.3424 250.929 98.3424 251.549 100.265L253.843 107.371C252.628 107.296 251.388 107.247 250.16 107.234H249.763C248.263 107.234 246.775 107.284 245.299 107.395L247.605 100.265H247.593Z" fill="#050E1A"/>
<path d="M267.795 248.064C266.964 247.481 265.687 246.861 264 246.315C260.181 245.075 255.009 244.368 249.453 244.368C243.898 244.368 239.061 245.026 235.279 246.204L234.907 246.315C233.232 246.861 231.955 247.481 231.124 248.064C230.244 248.696 230.107 249.106 230.095 249.23C230.095 249.366 230.244 249.788 231.112 250.408C231.943 251.003 233.22 251.611 234.894 252.156C238.714 253.396 243.885 254.103 249.453 254.103C255.022 254.103 260.193 253.396 264.013 252.156C265.699 251.611 266.964 250.991 267.807 250.408C268.675 249.775 268.812 249.366 268.824 249.23C268.812 249.106 268.675 248.696 267.795 248.064ZM265.463 256.261C261.111 257.675 255.431 258.431 249.453 258.431C243.476 258.431 237.784 257.675 233.443 256.261C232.277 255.914 231.161 255.443 230.095 254.885V261.048C230.095 261.16 230.219 261.581 231.112 262.226C231.943 262.821 233.22 263.429 234.894 263.975L235.266 264.086C239.049 265.264 244.059 265.922 249.453 265.922C254.848 265.922 260.193 265.215 264.013 263.975C265.699 263.429 266.976 262.821 267.807 262.226C268.7 261.581 268.824 261.16 268.824 261.048V254.885C267.758 255.455 266.629 255.914 265.463 256.261ZM265.476 268.067C261.123 269.481 255.443 270.237 249.453 270.237C243.464 270.237 237.796 269.481 233.456 268.067C232.29 267.72 231.161 267.261 230.095 266.691V272.867C230.095 272.978 230.219 273.4 231.112 274.032C231.893 274.59 233.059 275.161 234.584 275.682L234.894 275.793L235.266 275.905C239.049 277.071 244.059 277.74 249.453 277.74C254.848 277.74 260.193 277.033 264.013 275.793C265.699 275.235 266.976 274.627 267.807 274.032C268.7 273.4 268.824 272.978 268.824 272.854V266.691C267.758 267.249 266.642 267.72 265.476 268.067ZM265.451 279.886C261.111 281.299 255.431 282.056 249.453 282.056C243.476 282.056 237.796 281.299 233.443 279.886C232.277 279.526 231.161 279.067 230.095 278.497V284.673C230.095 284.784 230.219 285.206 231.112 285.851C231.943 286.446 233.22 287.054 234.894 287.599C238.714 288.839 243.885 289.546 249.453 289.546C255.022 289.546 260.193 288.839 264.013 287.599C265.699 287.054 266.976 286.446 267.807 285.851C268.7 285.206 268.824 284.784 268.824 284.673V278.497C267.758 279.067 266.629 279.526 265.451 279.886ZM249.453 282.056C243.476 282.056 237.796 281.299 233.443 279.886C232.277 279.526 231.161 279.067 230.095 278.497V284.673C230.095 284.784 230.219 285.206 231.112 285.851C231.943 286.446 233.22 287.054 234.894 287.599C238.714 288.839 243.885 289.546 249.453 289.546C255.022 289.546 260.193 288.839 264.013 287.599C265.699 287.054 266.976 286.446 267.807 285.851C268.7 285.206 268.824 284.784 268.824 284.673V278.497C267.758 279.067 266.629 279.526 265.451 279.886C261.111 281.299 255.431 282.056 249.453 282.056ZM249.453 270.237C243.476 270.237 237.796 269.481 233.456 268.067C232.29 267.72 231.161 267.261 230.095 266.691V272.867C230.095 272.978 230.219 273.4 231.112 274.032C231.893 274.59 233.059 275.161 234.584 275.682L234.894 275.793L235.266 275.905C239.049 277.071 244.059 277.74 249.453 277.74C254.848 277.74 260.193 277.033 264.013 275.793C265.699 275.235 266.976 274.627 267.807 274.032C268.7 273.4 268.824 272.978 268.824 272.854V266.691C267.758 267.249 266.642 267.72 265.476 268.067C261.123 269.481 255.443 270.237 249.453 270.237ZM249.453 258.431C243.476 258.431 237.784 257.675 233.443 256.261C232.277 255.914 231.161 255.443 230.095 254.885V261.048C230.095 261.16 230.219 261.581 231.112 262.226C231.943 262.821 233.22 263.429 234.894 263.975L235.266 264.086C239.049 265.264 244.059 265.922 249.453 265.922C254.848 265.922 260.193 265.215 264.013 263.975C265.699 263.429 266.976 262.821 267.807 262.226C268.7 261.581 268.824 261.16 268.824 261.048V254.885C267.758 255.455 266.629 255.914 265.463 256.261C261.111 257.675 255.431 258.431 249.453 258.431ZM231.112 250.408C231.943 251.003 233.22 251.611 234.894 252.156C238.714 253.396 243.885 254.103 249.453 254.103C255.022 254.103 260.193 253.396 264.013 252.156C265.699 251.611 266.964 250.991 267.807 250.408C268.675 249.775 268.812 249.366 268.824 249.23C268.812 249.106 268.675 248.696 267.795 248.064C266.964 247.481 265.687 246.861 264 246.315C260.181 245.075 255.009 244.368 249.453 244.368C243.898 244.368 239.061 245.026 235.279 246.204L234.907 246.315C233.232 246.861 231.955 247.481 231.124 248.064C230.244 248.696 230.107 249.106 230.095 249.23C230.095 249.366 230.244 249.788 231.112 250.408ZM342.736 283.556C330.223 254.55 304.714 232.55 273.599 224.985C272.135 224.625 271.069 223.311 271.069 221.785C271.069 220.496 271.838 219.33 272.991 218.784C291.221 210.029 303.821 191.315 303.821 169.625C303.821 139.577 279.613 115.208 249.751 115.208C219.889 115.208 195.681 139.577 195.681 169.625C195.681 191.315 208.281 210.041 226.523 218.784C227.677 219.342 228.433 220.496 228.433 221.773C228.433 223.298 227.379 224.601 225.916 224.96C194.59 232.537 168.931 254.761 156.468 284.028C155.898 285.367 156.927 286.843 158.378 286.843C188.774 286.843 216.044 300.298 234.621 321.629C236.705 324.01 238.677 326.49 240.524 329.069H258.37C260.218 326.49 262.19 324.01 264.273 321.629C282.85 300.298 310.121 286.843 340.516 286.843C342.215 286.843 343.418 285.131 342.736 283.556ZM273.338 284.673C273.338 286.285 272.47 287.686 271.106 288.827C269.767 289.968 267.845 290.923 265.476 291.692C261.123 293.106 255.443 293.874 249.453 293.874C246.465 293.874 243.55 293.688 240.834 293.316C238.119 292.944 235.613 292.399 233.443 291.692C231.397 291.022 229.686 290.216 228.383 289.286C227.131 288.381 226.201 287.302 225.804 286.037C225.655 285.752 225.581 285.441 225.581 285.107V249.217C225.593 247.605 226.461 246.216 227.825 245.087C229.177 243.947 231.087 242.992 233.456 242.223C237.809 240.809 243.488 240.04 249.453 240.04C255.418 240.04 261.111 240.809 265.463 242.223C267.82 242.992 269.742 243.947 271.094 245.075C272.458 246.216 273.326 247.605 273.338 249.217V284.673ZM249.453 282.056C243.476 282.056 237.796 281.299 233.443 279.886C232.277 279.526 231.161 279.067 230.095 278.497V284.673C230.095 284.784 230.219 285.206 231.112 285.851C231.943 286.446 233.22 287.054 234.894 287.599C238.714 288.839 243.885 289.546 249.453 289.546C255.022 289.546 260.193 288.839 264.013 287.599C265.699 287.054 266.976 286.446 267.807 285.851C268.7 285.206 268.824 284.784 268.824 284.673V278.497C267.758 279.067 266.629 279.526 265.451 279.886C261.111 281.299 255.431 282.056 249.453 282.056ZM249.453 270.237C243.476 270.237 237.796 269.481 233.456 268.067C232.29 267.72 231.161 267.261 230.095 266.691V272.867C230.095 272.978 230.219 273.4 231.112 274.032C231.893 274.59 233.059 275.161 234.584 275.682L234.894 275.793L235.266 275.905C239.049 277.071 244.059 277.74 249.453 277.74C254.848 277.74 260.193 277.033 264.013 275.793C265.699 275.235 266.976 274.627 267.807 274.032C268.7 273.4 268.824 272.978 268.824 272.854V266.691C267.758 267.249 266.642 267.72 265.476 268.067C261.123 269.481 255.443 270.237 249.453 270.237ZM249.453 258.431C243.476 258.431 237.784 257.675 233.443 256.261C232.277 255.914 231.161 255.443 230.095 254.885V261.048C230.095 261.16 230.219 261.581 231.112 262.226C231.943 262.821 233.22 263.429 234.894 263.975L235.266 264.086C239.049 265.264 244.059 265.922 249.453 265.922C254.848 265.922 260.193 265.215 264.013 263.975C265.699 263.429 266.976 262.821 267.807 262.226C268.7 261.581 268.824 261.16 268.824 261.048V254.885C267.758 255.455 266.629 255.914 265.463 256.261C261.111 257.675 255.431 258.431 249.453 258.431ZM267.795 248.064C266.964 247.481 265.687 246.861 264 246.315C260.181 245.075 255.009 244.368 249.453 244.368C243.898 244.368 239.061 245.026 235.279 246.204L234.907 246.315C233.232 246.861 231.955 247.481 231.124 248.064C230.244 248.696 230.107 249.106 230.095 249.23C230.095 249.366 230.244 249.788 231.112 250.408C231.943 251.003 233.22 251.611 234.894 252.156C238.714 253.396 243.885 254.103 249.453 254.103C255.022 254.103 260.193 253.396 264.013 252.156C265.699 251.611 266.964 250.991 267.807 250.408C268.675 249.775 268.812 249.366 268.824 249.23C268.812 249.106 268.675 248.696 267.795 248.064Z" fill="#050E1A"/>
<path d="M484.483 321.629H14.6584C6.57271 321.629 0 328.202 0 336.287V373.963C0 382.048 6.57271 388.621 14.6584 388.621H484.483C492.569 388.621 499.142 382.048 499.142 373.963V336.287C499.142 328.202 492.569 321.629 484.483 321.629ZM491.701 373.963C491.701 377.943 488.464 381.18 484.483 381.18H14.6584C10.6776 381.18 7.4408 377.943 7.4408 373.963V336.287C7.4408 332.306 10.6776 329.07 14.6584 329.07H484.483C488.464 329.07 491.701 332.306 491.701 336.287V373.963Z" fill="#050E1A"/>
<path d="M30.0862 363.558L36.6961 348.738H40.0817L46.704 363.558H43.1076L37.6882 350.474H39.04L33.5958 363.558H30.0862ZM33.3973 360.383L34.3026 357.779H41.9295L42.8596 360.383H33.3973Z" fill="black"/>
<path d="M55.6697 350.574C55.062 350.574 54.566 350.4 54.1815 350.041C53.7971 349.693 53.6111 349.247 53.6111 348.726C53.6111 348.205 53.7971 347.771 54.1815 347.411C54.566 347.052 55.062 346.878 55.6697 346.878C56.2774 346.878 56.7734 347.039 57.1579 347.374C57.5423 347.709 57.7283 348.131 57.7283 348.652C57.7283 349.197 57.5423 349.656 57.1703 350.016C56.7982 350.375 56.3022 350.561 55.6821 350.561L55.6697 350.574ZM54.0203 363.558V352.161H57.3191V363.558H54.0203Z" fill="black"/>
<path d="M60.3943 363.558V352.161H63.5442V355.311L62.949 354.356C63.3582 353.588 63.9411 353.005 64.7099 352.595C65.4788 352.186 66.3469 351.975 67.3142 351.975C68.2195 351.975 69.0256 352.161 69.7449 352.521C70.4518 352.881 71.0222 353.426 71.4315 354.17C71.8407 354.914 72.0515 355.857 72.0515 357.023V363.546H68.7528V357.531C68.7528 356.613 68.5544 355.931 68.1451 355.497C67.7359 355.063 67.1778 354.84 66.4337 354.84C65.9129 354.84 65.4416 354.952 65.02 355.162C64.5983 355.373 64.2759 355.721 64.0403 356.167C63.8047 356.626 63.693 357.196 63.693 357.903V363.533H60.3943V363.558Z" fill="black"/>
<path d="M77.9048 363.558L73.1179 352.161H76.5283L80.5091 361.971H78.8101L82.9398 352.161H86.1145L81.3028 363.558H77.8924H77.9048Z" fill="black"/>
<path d="M92.8242 363.732C91.522 363.732 90.3811 363.471 89.4014 362.963C88.4217 362.455 87.6652 361.76 87.1196 360.88C86.5739 359.999 86.3135 358.995 86.3135 357.866C86.3135 356.738 86.5739 355.708 87.1072 354.828C87.6404 353.947 88.3597 353.253 89.2774 352.757C90.1951 352.261 91.2368 352 92.3901 352C93.5435 352 94.5108 352.236 95.4037 352.707C96.2965 353.178 97.0034 353.86 97.5367 354.741C98.0575 355.621 98.318 356.676 98.318 357.903C98.318 358.027 98.318 358.176 98.2932 358.337C98.2808 358.499 98.2684 358.647 98.256 358.796H89.0046V356.874H96.5198L95.2548 357.444C95.2548 356.849 95.1308 356.341 94.8952 355.894C94.6596 355.46 94.3247 355.113 93.9031 354.865C93.4814 354.617 92.9854 354.493 92.4149 354.493C91.8445 354.493 91.3484 354.617 90.9268 354.865C90.4927 355.113 90.1579 355.46 89.9223 355.907C89.6866 356.353 89.5626 356.874 89.5626 357.482V357.99C89.5626 358.61 89.699 359.156 89.9719 359.627C90.2447 360.098 90.6415 360.458 91.1376 360.706C91.6337 360.954 92.2289 361.078 92.911 361.078C93.5187 361.078 94.0519 360.991 94.5108 360.805C94.9696 360.619 95.3913 360.346 95.7757 359.974L97.5367 361.884C97.0158 362.479 96.3586 362.926 95.5649 363.248C94.7712 363.571 93.8659 363.719 92.8366 363.719L92.8242 363.732Z" fill="black"/>
<path d="M104.357 363.732C103.377 363.732 102.447 363.62 101.554 363.385C100.662 363.149 99.9546 362.864 99.4214 362.504L100.525 360.136C101.046 360.458 101.666 360.731 102.373 360.929C103.08 361.128 103.787 361.239 104.481 361.239C105.25 361.239 105.783 361.152 106.106 360.966C106.428 360.78 106.577 360.532 106.577 360.21C106.577 359.937 106.453 359.739 106.205 359.602C105.957 359.466 105.634 359.367 105.225 359.292C104.816 359.218 104.37 359.156 103.886 359.081C103.402 359.007 102.906 358.92 102.41 358.796C101.914 358.672 101.468 358.499 101.058 358.25C100.649 358.002 100.327 357.68 100.079 357.271C99.8306 356.862 99.7066 356.328 99.7066 355.683C99.7066 354.964 99.9174 354.332 100.327 353.774C100.736 353.216 101.344 352.794 102.137 352.471C102.931 352.149 103.873 352 104.977 352C105.758 352 106.54 352.087 107.346 352.261C108.152 352.434 108.822 352.682 109.355 353.005L108.251 355.361C107.705 355.039 107.147 354.815 106.589 354.691C106.031 354.567 105.498 354.505 104.965 354.505C104.233 354.505 103.7 354.604 103.353 354.803C103.018 355.001 102.844 355.262 102.844 355.572C102.844 355.857 102.968 356.068 103.216 356.204C103.464 356.341 103.787 356.465 104.196 356.539C104.605 356.614 105.052 356.7 105.535 356.762C106.019 356.824 106.515 356.924 107.011 357.048C107.507 357.172 107.954 357.358 108.35 357.593C108.747 357.829 109.082 358.139 109.33 358.548C109.578 358.957 109.714 359.478 109.714 360.123C109.714 360.83 109.504 361.45 109.082 361.996C108.66 362.541 108.053 362.963 107.247 363.273C106.453 363.583 105.473 363.744 104.332 363.744L104.357 363.732Z" fill="black"/>
<path d="M110.422 354.704V352.162H118.322V354.704H110.422ZM116.437 363.732C115.097 363.732 114.056 363.385 113.299 362.703C112.555 362.021 112.171 360.991 112.171 359.64V349.644H115.469V359.602C115.469 360.086 115.593 360.458 115.854 360.718C116.114 360.979 116.449 361.115 116.896 361.115C117.416 361.115 117.863 360.979 118.235 360.694L119.128 363.025C118.793 363.261 118.384 363.447 117.913 363.571C117.441 363.695 116.945 363.757 116.437 363.757V363.732Z" fill="black"/>
<path d="M122.637 350.574C122.029 350.574 121.533 350.4 121.149 350.041C120.764 349.693 120.578 349.247 120.578 348.726C120.578 348.205 120.764 347.771 121.149 347.411C121.533 347.052 122.029 346.878 122.637 346.878C123.244 346.878 123.74 347.039 124.125 347.374C124.509 347.709 124.695 348.131 124.695 348.652C124.695 349.197 124.509 349.656 124.137 350.016C123.765 350.375 123.269 350.561 122.649 350.561L122.637 350.574ZM120.987 363.558V352.161H124.286V363.558H120.987Z" fill="black"/>
<path d="M132.211 363C131.157 363 130.189 362.777 129.346 362.318C128.503 361.859 127.808 361.214 127.287 360.396C126.767 359.565 126.519 358.61 126.519 357.506C126.519 356.403 126.779 355.423 127.287 354.592C127.808 353.761 128.49 353.129 129.346 352.682C130.202 352.236 131.157 352 132.211 352C133.166 352 134.021 352.199 134.753 352.583C135.485 352.968 136.055 353.575 136.464 354.381C136.874 355.2 137.084 356.229 137.084 357.506C137.084 358.784 136.874 359.801 136.464 360.607C136.055 361.413 135.485 362.021 134.753 362.417C134.021 362.814 133.166 363.013 132.211 363.013V363ZM132.719 367.837C131.64 367.837 130.611 367.7 129.619 367.44C128.627 367.179 127.796 366.783 127.126 366.262L128.441 363.893C128.924 364.29 129.532 364.6 130.276 364.836C131.02 365.071 131.752 365.183 132.471 365.183C133.637 365.183 134.493 364.922 135.026 364.402C135.559 363.881 135.82 363.099 135.82 362.07V360.359L136.03 357.506L135.993 354.629V352.174H139.131V361.661C139.131 363.781 138.585 365.344 137.481 366.336C136.378 367.341 134.803 367.837 132.732 367.837H132.719ZM132.868 360.297C133.451 360.297 133.959 360.185 134.418 359.949C134.865 359.714 135.224 359.391 135.472 358.97C135.733 358.548 135.857 358.065 135.857 357.506C135.857 356.948 135.733 356.452 135.472 356.031C135.212 355.621 134.865 355.287 134.418 355.051C133.972 354.815 133.451 354.704 132.868 354.704C132.285 354.704 131.777 354.815 131.318 355.051C130.859 355.287 130.512 355.609 130.251 356.031C129.991 356.452 129.855 356.936 129.855 357.506C129.855 358.077 129.979 358.548 130.251 358.97C130.512 359.391 130.871 359.726 131.318 359.949C131.764 360.185 132.285 360.297 132.868 360.297Z" fill="black"/>
<path d="M145.704 363.732C144.811 363.732 144.054 363.583 143.422 363.273C142.79 362.963 142.306 362.554 141.959 362.033C141.611 361.512 141.45 360.929 141.45 360.272C141.45 359.615 141.611 359.007 141.946 358.499C142.281 357.99 142.802 357.593 143.521 357.308C144.24 357.023 145.183 356.874 146.336 356.874H149.362V358.796H146.696C145.915 358.796 145.381 358.92 145.096 359.181C144.811 359.441 144.662 359.751 144.662 360.136C144.662 360.557 144.823 360.892 145.158 361.14C145.493 361.388 145.939 361.512 146.522 361.512C147.105 361.512 147.564 361.376 148.01 361.115C148.445 360.855 148.767 360.47 148.965 359.962L149.474 361.487C149.238 362.219 148.792 362.777 148.159 363.161C147.527 363.546 146.708 363.732 145.704 363.732ZM149.176 363.558V361.338L148.965 360.855V356.874C148.965 356.167 148.755 355.621 148.321 355.225C147.886 354.828 147.229 354.629 146.336 354.629C145.729 354.629 145.133 354.729 144.551 354.915C143.968 355.101 143.472 355.361 143.062 355.683L141.872 353.377C142.492 352.943 143.236 352.595 144.116 352.36C144.997 352.124 145.877 352 146.783 352C148.519 352 149.871 352.409 150.826 353.228C151.781 354.046 152.264 355.324 152.264 357.06V363.558H149.176Z" fill="black"/>
<path d="M160.846 363.732C159.618 363.732 158.527 363.484 157.559 362.975C156.592 362.467 155.848 361.785 155.302 360.892C154.757 359.999 154.484 358.995 154.484 357.866C154.484 356.738 154.757 355.708 155.302 354.828C155.848 353.947 156.592 353.253 157.559 352.757C158.527 352.261 159.618 352 160.846 352C162.074 352 163.09 352.248 163.983 352.757C164.876 353.253 165.533 353.972 165.955 354.902L163.388 356.279C163.09 355.745 162.718 355.349 162.272 355.088C161.825 354.828 161.342 354.704 160.821 354.704C160.251 354.704 159.742 354.828 159.296 355.088C158.849 355.349 158.49 355.708 158.229 356.167C157.969 356.626 157.832 357.196 157.832 357.866C157.832 358.536 157.956 359.094 158.229 359.565C158.502 360.036 158.849 360.396 159.296 360.644C159.742 360.892 160.251 361.028 160.821 361.028C161.342 361.028 161.825 360.904 162.272 360.656C162.718 360.408 163.09 360.011 163.388 359.453L165.955 360.855C165.533 361.772 164.876 362.479 163.983 362.988C163.09 363.484 162.049 363.744 160.846 363.744V363.732ZM159.854 368.469C159.482 368.469 159.134 368.432 158.787 368.345C158.44 368.258 158.142 368.159 157.882 368.023L158.39 366.609C158.601 366.708 158.824 366.783 159.048 366.845C159.271 366.894 159.519 366.931 159.767 366.931C160.164 366.931 160.449 366.869 160.61 366.745C160.784 366.621 160.871 366.46 160.871 366.262C160.871 366.076 160.784 365.927 160.623 365.815C160.461 365.704 160.201 365.642 159.829 365.642H159.11L159.655 363.397H161.416L161.119 364.625C161.751 364.699 162.222 364.898 162.52 365.232C162.818 365.567 162.966 365.952 162.966 366.386C162.966 367.018 162.681 367.527 162.123 367.911C161.565 368.296 160.809 368.482 159.854 368.482V368.469Z" fill="black"/>
<path d="M171.374 363.732C170.481 363.732 169.725 363.583 169.092 363.273C168.46 362.963 167.976 362.553 167.629 362.033C167.282 361.512 167.121 360.929 167.121 360.272C167.121 359.614 167.282 359.007 167.617 358.498C167.952 357.99 168.472 357.593 169.192 357.308C169.911 357.022 170.853 356.874 172.007 356.874H175.033V358.796H172.366C171.585 358.796 171.052 358.92 170.767 359.18C170.481 359.441 170.333 359.751 170.333 360.135C170.333 360.557 170.494 360.892 170.829 361.14C171.163 361.388 171.61 361.512 172.193 361.512C172.776 361.512 173.234 361.375 173.681 361.115C174.115 360.854 174.437 360.47 174.636 359.961L175.144 361.487C174.909 362.219 174.462 362.777 173.83 363.161C173.197 363.546 172.379 363.732 171.374 363.732ZM174.847 363.558V361.338L174.636 360.854V356.874C174.636 356.167 174.425 355.621 173.991 355.224C173.557 354.827 172.9 354.629 172.007 354.629C171.399 354.629 170.804 354.728 170.221 354.914C169.638 355.1 169.142 355.361 168.733 355.683L167.542 353.376C168.162 352.942 168.906 352.595 169.787 352.359C170.667 352.124 171.548 352 172.453 352C174.189 352 175.541 352.409 176.496 353.228C177.451 354.046 177.935 355.323 177.935 357.06V363.558H174.847ZM174.375 350.76C174.003 350.76 173.681 350.698 173.396 350.561C173.11 350.425 172.862 350.276 172.627 350.09C172.404 349.916 172.193 349.755 171.994 349.619C171.796 349.482 171.597 349.42 171.399 349.42C171.114 349.42 170.878 349.52 170.705 349.73C170.519 349.941 170.419 350.226 170.382 350.611H168.708C168.733 349.668 168.968 348.912 169.402 348.354C169.836 347.796 170.432 347.523 171.176 347.523C171.548 347.523 171.87 347.585 172.156 347.721C172.441 347.858 172.701 348.019 172.924 348.193C173.16 348.379 173.371 348.54 173.569 348.664C173.768 348.8 173.954 348.862 174.14 348.862C174.437 348.862 174.673 348.763 174.859 348.552C175.045 348.341 175.144 348.069 175.157 347.721H176.831C176.818 348.627 176.583 349.358 176.149 349.916C175.702 350.474 175.107 350.747 174.363 350.747L174.375 350.76Z" fill="black"/>
<path d="M186.43 363.732C185.214 363.732 184.135 363.471 183.205 362.963C182.263 362.455 181.531 361.76 180.985 360.88C180.44 359.999 180.167 358.995 180.167 357.866C180.167 356.738 180.44 355.708 180.985 354.828C181.531 353.947 182.275 353.253 183.205 352.757C184.135 352.261 185.214 352 186.43 352C187.645 352 188.699 352.248 189.654 352.757C190.609 353.265 191.341 353.947 191.874 354.828C192.407 355.708 192.68 356.725 192.68 357.878C192.68 359.032 192.407 360.011 191.874 360.892C191.341 361.772 190.597 362.467 189.654 362.975C188.712 363.484 187.633 363.744 186.43 363.744V363.732ZM186.43 361.016C186.975 361.016 187.471 360.892 187.918 360.632C188.352 360.371 188.699 360.011 188.96 359.54C189.22 359.069 189.344 358.511 189.344 357.854C189.344 357.196 189.22 356.626 188.96 356.155C188.699 355.683 188.364 355.324 187.918 355.076C187.484 354.815 186.988 354.691 186.43 354.691C185.872 354.691 185.388 354.815 184.941 355.076C184.507 355.336 184.16 355.696 183.887 356.155C183.615 356.614 183.491 357.184 183.491 357.854C183.491 358.523 183.615 359.069 183.887 359.54C184.148 360.011 184.495 360.371 184.941 360.632C185.376 360.892 185.872 361.016 186.43 361.016Z" fill="black"/>
<path d="M206.383 363.732C205.156 363.732 204.064 363.484 203.097 362.975C202.13 362.467 201.386 361.785 200.84 360.892C200.294 359.999 200.021 358.995 200.021 357.866C200.021 356.738 200.294 355.708 200.84 354.828C201.386 353.947 202.13 353.253 203.097 352.757C204.064 352.261 205.156 352 206.383 352C207.611 352 208.628 352.248 209.521 352.757C210.414 353.253 211.071 353.972 211.493 354.902L208.926 356.279C208.628 355.745 208.256 355.349 207.81 355.088C207.363 354.828 206.879 354.704 206.359 354.704C205.788 354.704 205.28 354.828 204.833 355.088C204.387 355.349 204.027 355.708 203.767 356.167C203.506 356.626 203.37 357.196 203.37 357.866C203.37 358.536 203.494 359.094 203.767 359.565C204.04 360.036 204.387 360.396 204.833 360.644C205.28 360.892 205.788 361.028 206.359 361.028C206.879 361.028 207.363 360.904 207.81 360.656C208.256 360.408 208.628 360.011 208.926 359.453L211.493 360.855C211.071 361.772 210.414 362.479 209.521 362.988C208.628 363.484 207.586 363.744 206.383 363.744V363.732Z" fill="black"/>
<path d="M218.66 363.732C217.445 363.732 216.366 363.471 215.436 362.963C214.493 362.455 213.762 361.76 213.216 360.88C212.67 359.999 212.397 358.995 212.397 357.866C212.397 356.738 212.67 355.708 213.216 354.828C213.762 353.947 214.506 353.253 215.436 352.757C216.366 352.261 217.445 352 218.66 352C219.875 352 220.93 352.248 221.884 352.757C222.839 353.265 223.571 353.947 224.104 354.828C224.638 355.708 224.91 356.725 224.91 357.878C224.91 359.032 224.638 360.011 224.104 360.892C223.571 361.772 222.827 362.467 221.884 362.975C220.942 363.484 219.863 363.744 218.66 363.744V363.732ZM218.66 361.016C219.206 361.016 219.702 360.892 220.148 360.632C220.582 360.371 220.93 360.011 221.19 359.54C221.45 359.069 221.574 358.511 221.574 357.854C221.574 357.196 221.45 356.626 221.19 356.155C220.93 355.683 220.595 355.324 220.148 355.076C219.714 354.815 219.218 354.691 218.66 354.691C218.102 354.691 217.618 354.815 217.172 355.076C216.738 355.336 216.391 355.696 216.118 356.155C215.845 356.614 215.721 357.184 215.721 357.854C215.721 358.523 215.845 359.069 216.118 359.54C216.378 360.011 216.726 360.371 217.172 360.632C217.606 360.892 218.102 361.016 218.66 361.016Z" fill="black"/>
<path d="M227.105 363.558V352.161H230.255V355.274L229.66 354.369C230.057 353.587 230.615 353.004 231.347 352.595C232.078 352.198 232.909 351.988 233.839 351.988C234.881 351.988 235.799 352.248 236.58 352.781C237.361 353.314 237.882 354.121 238.13 355.212L236.965 354.889C237.349 353.997 237.957 353.29 238.8 352.769C239.643 352.248 240.598 351.988 241.689 351.988C242.595 351.988 243.401 352.174 244.095 352.533C244.79 352.893 245.348 353.438 245.745 354.183C246.142 354.927 246.352 355.869 246.352 357.035V363.558H243.054V357.543C243.054 356.626 242.868 355.944 242.483 355.51C242.099 355.075 241.565 354.852 240.871 354.852C240.387 354.852 239.966 354.964 239.581 355.175C239.197 355.386 238.899 355.72 238.688 356.154C238.478 356.588 238.366 357.146 238.366 357.829V363.546H235.067V357.531C235.067 356.613 234.881 355.931 234.509 355.497C234.137 355.063 233.604 354.84 232.909 354.84C232.426 354.84 232.004 354.951 231.62 355.162C231.235 355.373 230.937 355.708 230.727 356.142C230.516 356.576 230.404 357.134 230.404 357.816V363.533H227.105V363.558Z" fill="black"/>
<path d="M255.071 363.732C253.769 363.732 252.628 363.471 251.648 362.963C250.668 362.455 249.912 361.76 249.366 360.88C248.82 359.999 248.56 358.995 248.56 357.866C248.56 356.738 248.82 355.708 249.354 354.828C249.887 353.947 250.606 353.253 251.524 352.757C252.442 352.261 253.483 352 254.637 352C255.79 352 256.757 352.236 257.65 352.707C258.543 353.178 259.25 353.86 259.783 354.741C260.304 355.621 260.565 356.676 260.565 357.903C260.565 358.027 260.565 358.176 260.54 358.337C260.527 358.499 260.515 358.647 260.503 358.796H251.251V356.874H258.766L257.501 357.444C257.501 356.849 257.377 356.341 257.142 355.894C256.906 355.46 256.571 355.113 256.15 354.865C255.728 354.617 255.232 354.493 254.662 354.493C254.091 354.493 253.595 354.617 253.173 354.865C252.739 355.113 252.404 355.46 252.169 355.907C251.933 356.353 251.809 356.874 251.809 357.482V357.99C251.809 358.61 251.946 359.156 252.218 359.627C252.491 360.098 252.888 360.458 253.384 360.706C253.88 360.954 254.476 361.078 255.158 361.078C255.765 361.078 256.298 360.991 256.757 360.805C257.216 360.619 257.638 360.346 258.022 359.974L259.783 361.884C259.262 362.479 258.605 362.926 257.811 363.248C257.018 363.571 256.112 363.719 255.083 363.719L255.071 363.732Z" fill="black"/>
<path d="M268.278 363.732C267.05 363.732 265.959 363.484 264.992 362.975C264.024 362.467 263.28 361.785 262.735 360.892C262.189 359.999 261.916 358.995 261.916 357.866C261.916 356.738 262.189 355.708 262.735 354.828C263.28 353.947 264.024 353.253 264.992 352.757C265.959 352.261 267.05 352 268.278 352C269.506 352 270.523 352.248 271.415 352.757C272.308 353.253 272.966 353.972 273.387 354.902L270.82 356.279C270.523 355.745 270.151 355.349 269.704 355.088C269.258 354.828 268.774 354.704 268.253 354.704C267.683 354.704 267.174 354.828 266.728 355.088C266.281 355.349 265.922 355.708 265.661 356.167C265.401 356.626 265.264 357.196 265.264 357.866C265.264 358.536 265.388 359.094 265.661 359.565C265.934 360.036 266.281 360.396 266.728 360.644C267.174 360.892 267.683 361.028 268.253 361.028C268.774 361.028 269.258 360.904 269.704 360.656C270.151 360.408 270.523 360.011 270.82 359.453L273.387 360.855C272.966 361.772 272.308 362.479 271.415 362.988C270.523 363.484 269.481 363.744 268.278 363.744V363.732ZM267.286 368.469C266.914 368.469 266.567 368.432 266.219 368.345C265.872 368.258 265.574 368.159 265.314 368.023L265.822 366.609C266.033 366.708 266.256 366.783 266.48 366.845C266.703 366.894 266.951 366.931 267.199 366.931C267.596 366.931 267.881 366.869 268.042 366.745C268.216 366.621 268.303 366.46 268.303 366.262C268.303 366.076 268.216 365.927 268.055 365.815C267.893 365.704 267.633 365.642 267.261 365.642H266.542L267.087 363.397H268.848L268.551 364.625C269.183 364.699 269.654 364.898 269.952 365.232C270.25 365.567 270.399 365.952 270.399 366.386C270.399 367.018 270.113 367.527 269.555 367.911C268.997 368.296 268.241 368.482 267.286 368.482V368.469Z" fill="black"/>
<path d="M278.807 363.732C277.914 363.732 277.158 363.583 276.526 363.273C275.893 362.963 275.409 362.554 275.062 362.033C274.715 361.512 274.554 360.929 274.554 360.272C274.554 359.615 274.715 359.007 275.05 358.499C275.385 357.99 275.905 357.593 276.625 357.308C277.344 357.023 278.287 356.874 279.44 356.874H282.466V358.796H279.799C279.018 358.796 278.485 358.92 278.2 359.181C277.914 359.441 277.766 359.751 277.766 360.136C277.766 360.557 277.927 360.892 278.262 361.14C278.597 361.388 279.043 361.512 279.626 361.512C280.209 361.512 280.668 361.376 281.114 361.115C281.548 360.855 281.87 360.47 282.069 359.962L282.577 361.487C282.342 362.219 281.895 362.777 281.263 363.161C280.63 363.546 279.812 363.732 278.807 363.732ZM282.28 363.558V361.338L282.069 360.855V356.874C282.069 356.167 281.858 355.621 281.424 355.225C280.99 354.828 280.333 354.629 279.44 354.629C278.832 354.629 278.237 354.729 277.654 354.915C277.071 355.101 276.575 355.361 276.166 355.683L274.975 353.377C275.595 352.943 276.339 352.595 277.22 352.36C278.1 352.124 278.981 352 279.886 352C281.622 352 282.974 352.409 283.929 353.228C284.884 354.046 285.368 355.324 285.368 357.06V363.558H282.28Z" fill="black"/>
<path d="M299.852 363.732C298.624 363.732 297.533 363.484 296.566 362.975C295.598 362.467 294.854 361.785 294.309 360.892C293.763 359.999 293.49 358.995 293.49 357.866C293.49 356.738 293.763 355.708 294.309 354.828C294.854 353.947 295.598 353.253 296.566 352.757C297.533 352.261 298.624 352 299.852 352C301.08 352 302.097 352.248 302.99 352.757C303.883 353.253 304.54 353.972 304.961 354.902L302.394 356.279C302.097 355.745 301.725 355.349 301.278 355.088C300.832 354.828 300.348 354.704 299.827 354.704C299.257 354.704 298.748 354.828 298.302 355.088C297.855 355.349 297.496 355.708 297.235 356.167C296.975 356.626 296.839 357.196 296.839 357.866C296.839 358.536 296.963 359.094 297.235 359.565C297.508 360.036 297.855 360.396 298.302 360.644C298.748 360.892 299.257 361.028 299.827 361.028C300.348 361.028 300.832 360.904 301.278 360.656C301.725 360.408 302.097 360.011 302.394 359.453L304.961 360.855C304.54 361.772 303.883 362.479 302.99 362.988C302.097 363.484 301.055 363.744 299.852 363.744V363.732Z" fill="black"/>
<path d="M312.142 363.732C310.926 363.732 309.847 363.471 308.917 362.963C307.975 362.455 307.243 361.76 306.697 360.88C306.152 359.999 305.879 358.995 305.879 357.866C305.879 356.738 306.152 355.708 306.697 354.828C307.243 353.947 307.987 353.253 308.917 352.757C309.847 352.261 310.926 352 312.142 352C313.357 352 314.411 352.248 315.366 352.757C316.321 353.265 317.053 353.947 317.586 354.828C318.119 355.708 318.392 356.725 318.392 357.878C318.392 359.032 318.119 360.011 317.586 360.892C317.053 361.772 316.308 362.467 315.366 362.975C314.423 363.484 313.344 363.744 312.142 363.744V363.732ZM312.142 361.016C312.687 361.016 313.183 360.892 313.63 360.632C314.064 360.371 314.411 360.011 314.671 359.54C314.932 359.069 315.056 358.511 315.056 357.854C315.056 357.196 314.932 356.626 314.671 356.155C314.411 355.683 314.076 355.324 313.63 355.076C313.196 354.815 312.7 354.691 312.142 354.691C311.584 354.691 311.1 354.815 310.653 355.076C310.219 355.336 309.872 355.696 309.599 356.155C309.326 356.614 309.202 357.184 309.202 357.854C309.202 358.523 309.326 359.069 309.599 359.54C309.86 360.011 310.207 360.371 310.653 360.632C311.087 360.892 311.584 361.016 312.142 361.016Z" fill="black"/>
<path d="M320.587 363.558V352.161H323.737V355.274L323.142 354.369C323.539 353.587 324.097 353.004 324.829 352.595C325.56 352.198 326.391 351.988 327.321 351.988C328.363 351.988 329.281 352.248 330.062 352.781C330.843 353.314 331.364 354.121 331.612 355.212L330.446 354.889C330.831 353.997 331.439 353.29 332.282 352.769C333.125 352.248 334.08 351.988 335.171 351.988C336.077 351.988 336.883 352.174 337.577 352.533C338.272 352.893 338.83 353.438 339.227 354.183C339.623 354.927 339.834 355.869 339.834 357.035V363.558H336.536V357.543C336.536 356.626 336.349 355.944 335.965 355.51C335.581 355.075 335.047 354.852 334.353 354.852C333.869 354.852 333.448 354.964 333.063 355.175C332.679 355.386 332.381 355.72 332.17 356.154C331.959 356.588 331.848 357.146 331.848 357.829V363.546H328.549V357.531C328.549 356.613 328.363 355.931 327.991 355.497C327.619 355.063 327.086 354.84 326.391 354.84C325.908 354.84 325.486 354.951 325.101 355.162C324.717 355.373 324.419 355.708 324.209 356.142C323.998 356.576 323.886 357.134 323.886 357.816V363.533H320.587V363.558Z" fill="black"/>
<path d="M353.612 363.732C352.669 363.732 351.826 363.546 351.082 363.186C350.338 362.814 349.767 362.256 349.358 361.499C348.949 360.743 348.738 359.776 348.738 358.61V352.174H352.037V358.126C352.037 359.069 352.235 359.763 352.644 360.21C353.041 360.656 353.612 360.879 354.356 360.879C354.864 360.879 355.31 360.768 355.707 360.557C356.104 360.334 356.414 359.999 356.637 359.54C356.861 359.081 356.972 358.511 356.972 357.816V352.186H360.271V363.583H357.134V360.445L357.704 361.351C357.32 362.144 356.761 362.74 356.017 363.136C355.273 363.533 354.467 363.744 353.587 363.744L353.612 363.732Z" fill="black"/>
<path d="M363.347 363.558V352.161H366.497V355.274L365.901 354.369C366.298 353.587 366.856 353.004 367.588 352.595C368.32 352.198 369.15 351.988 370.081 351.988C371.122 351.988 372.04 352.248 372.821 352.781C373.603 353.314 374.123 354.121 374.371 355.212L373.206 354.889C373.59 353.997 374.198 353.29 375.041 352.769C375.884 352.248 376.839 351.988 377.931 351.988C378.836 351.988 379.642 352.174 380.337 352.533C381.031 352.893 381.589 353.438 381.986 354.183C382.383 354.927 382.594 355.869 382.594 357.035V363.558H379.295V357.543C379.295 356.626 379.109 355.944 378.724 355.51C378.34 355.075 377.807 354.852 377.112 354.852C376.629 354.852 376.207 354.964 375.822 355.175C375.438 355.386 375.14 355.72 374.93 356.154C374.719 356.588 374.607 357.146 374.607 357.829V363.546H371.308V357.531C371.308 356.613 371.122 355.931 370.75 355.497C370.378 355.063 369.845 354.84 369.15 354.84C368.667 354.84 368.245 354.951 367.861 355.162C367.476 355.373 367.179 355.708 366.968 356.142C366.757 356.576 366.645 357.134 366.645 357.816V363.533H363.347V363.558Z" fill="black"/>
<path d="M389.08 363.732C388.187 363.732 387.431 363.583 386.798 363.273C386.166 362.963 385.682 362.554 385.335 362.033C384.988 361.512 384.827 360.929 384.827 360.272C384.827 359.615 384.988 359.007 385.323 358.499C385.658 357.99 386.178 357.593 386.898 357.308C387.617 357.023 388.559 356.874 389.713 356.874H392.739V358.796H390.072C389.291 358.796 388.758 358.92 388.473 359.181C388.187 359.441 388.039 359.751 388.039 360.136C388.039 360.557 388.2 360.892 388.535 361.14C388.869 361.388 389.316 361.512 389.899 361.512C390.482 361.512 390.941 361.376 391.387 361.115C391.821 360.855 392.143 360.47 392.342 359.962L392.85 361.487C392.615 362.219 392.168 362.777 391.536 363.161C390.903 363.546 390.085 363.732 389.08 363.732ZM392.553 363.558V361.338L392.342 360.855V356.874C392.342 356.167 392.131 355.621 391.697 355.225C391.263 354.828 390.606 354.629 389.713 354.629C389.105 354.629 388.51 354.729 387.927 354.915C387.344 355.101 386.848 355.361 386.439 355.683L385.248 353.377C385.868 352.943 386.612 352.595 387.493 352.36C388.373 352.124 389.254 352 390.159 352C391.895 352 393.247 352.409 394.202 353.228C395.157 354.046 395.641 355.324 395.641 357.06V363.558H392.553Z" fill="black"/>
<path d="M409.48 363.732C408.401 363.732 407.434 363.496 406.578 363.013C405.722 362.529 405.04 361.859 404.532 360.979C404.023 360.098 403.775 359.069 403.775 357.866C403.775 356.663 404.023 355.646 404.532 354.778C405.04 353.91 405.71 353.216 406.578 352.732C407.446 352.248 408.401 352 409.48 352C410.485 352 411.34 352.211 412.047 352.633C412.766 353.054 413.312 353.699 413.684 354.555C414.068 355.411 414.255 356.514 414.255 357.854C414.255 359.193 414.056 360.284 413.659 361.152C413.262 362.02 412.704 362.665 411.985 363.087C411.266 363.509 410.423 363.719 409.468 363.719L409.48 363.732ZM410.05 361.016C410.584 361.016 411.08 360.892 411.514 360.632C411.948 360.371 412.295 360.011 412.568 359.54C412.828 359.069 412.965 358.511 412.965 357.854C412.965 357.196 412.828 356.626 412.568 356.155C412.308 355.683 411.96 355.324 411.514 355.076C411.08 354.815 410.584 354.691 410.05 354.691C409.517 354.691 409.009 354.815 408.562 355.076C408.128 355.336 407.781 355.696 407.508 356.155C407.235 356.614 407.111 357.184 407.111 357.854C407.111 358.523 407.235 359.069 407.508 359.54C407.769 360.011 408.116 360.371 408.562 360.632C408.996 360.892 409.492 361.016 410.05 361.016ZM412.878 367.663V361.252L413.089 357.878L413.027 354.493V352.161H416.177V367.663H412.878Z" fill="black"/>
<path d="M424.039 363.732C423.097 363.732 422.253 363.546 421.509 363.186C420.765 362.814 420.195 362.256 419.786 361.499C419.376 360.743 419.166 359.776 419.166 358.61V352.174H422.464V358.126C422.464 359.069 422.663 359.763 423.072 360.21C423.469 360.656 424.039 360.879 424.783 360.879C425.292 360.879 425.738 360.768 426.135 360.557C426.532 360.334 426.842 359.999 427.065 359.54C427.288 359.081 427.4 358.511 427.4 357.816V352.186H430.699V363.583H427.561V360.445L428.132 361.351C427.747 362.144 427.189 362.74 426.445 363.136C425.701 363.533 424.895 363.744 424.014 363.744L424.039 363.732Z" fill="black"/>
<path d="M439.441 363.732C438.139 363.732 436.998 363.471 436.019 362.963C435.039 362.455 434.282 361.76 433.737 360.88C433.191 359.999 432.931 358.995 432.931 357.866C432.931 356.738 433.191 355.708 433.724 354.828C434.258 353.947 434.977 353.253 435.895 352.757C436.812 352.261 437.854 352 439.007 352C440.161 352 441.128 352.236 442.021 352.707C442.914 353.178 443.621 353.86 444.154 354.741C444.675 355.621 444.935 356.676 444.935 357.903C444.935 358.027 444.935 358.176 444.91 358.337C444.898 358.499 444.886 358.647 444.873 358.796H435.622V356.874H443.137L441.872 357.444C441.872 356.849 441.748 356.341 441.512 355.894C441.277 355.46 440.942 355.113 440.52 354.865C440.099 354.617 439.603 354.493 439.032 354.493C438.462 354.493 437.966 354.617 437.544 354.865C437.11 355.113 436.775 355.46 436.539 355.907C436.304 356.353 436.18 356.874 436.18 357.482V357.99C436.18 358.61 436.316 359.156 436.589 359.627C436.862 360.098 437.259 360.458 437.755 360.706C438.251 360.954 438.846 361.078 439.528 361.078C440.136 361.078 440.669 360.991 441.128 360.805C441.587 360.619 442.008 360.346 442.393 359.974L444.154 361.884C443.633 362.479 442.976 362.926 442.182 363.248C441.388 363.571 440.483 363.719 439.454 363.719L439.441 363.732Z" fill="black"/>
<path d="M447.155 363.558V352.161H450.305V355.386L449.859 354.456C450.194 353.65 450.739 353.042 451.496 352.62C452.252 352.199 453.157 352 454.224 352V355.051C454.088 355.039 453.951 355.026 453.84 355.014C453.728 355.001 453.604 355.014 453.48 355.014C452.575 355.014 451.843 355.274 451.285 355.783C450.727 356.303 450.454 357.097 450.454 358.189V363.571H447.155V363.558Z" fill="black"/>
<path d="M457.722 367.836C457.126 367.836 456.543 367.75 455.961 367.564C455.378 367.378 454.907 367.13 454.547 366.807L455.75 364.451C456.01 364.674 456.295 364.86 456.63 364.984C456.965 365.108 457.288 365.17 457.61 365.17C458.081 365.17 458.441 365.059 458.726 364.848C459.011 364.637 459.247 364.265 459.483 363.756L460.078 362.355L460.338 361.995L464.431 352.174H467.605L462.459 364.265C462.087 365.183 461.678 365.902 461.194 366.423C460.723 366.944 460.202 367.316 459.631 367.526C459.061 367.737 458.429 367.849 457.734 367.849L457.722 367.836ZM459.669 364.004L454.584 352.161H457.994L461.938 361.685L459.669 363.992V364.004Z" fill="black"/>
<path d="M198 82.047C196.846 82.3074 195.743 82.3446 194.676 82.171C193.61 81.9974 192.63 81.6377 191.749 81.0673C190.869 80.5092 190.112 79.7775 189.492 78.8722C188.872 77.9669 188.426 76.9252 188.165 75.7347C187.892 74.5442 187.855 73.4032 188.029 72.3243C188.203 71.2454 188.575 70.2657 189.12 69.3728C189.678 68.4923 190.398 67.7358 191.29 67.1282C192.183 66.5205 193.2 66.0865 194.354 65.826C195.767 65.5036 197.069 65.4912 198.285 65.7764C199.5 66.0616 200.567 66.6321 201.497 67.4754L199.103 71.109C198.545 70.6253 197.975 70.2905 197.392 70.0797C196.809 69.8813 196.189 69.8441 195.544 69.9929C195.036 70.1045 194.602 70.3029 194.23 70.5633C193.858 70.8238 193.56 71.171 193.349 71.5803C193.126 71.9895 192.989 72.4483 192.94 72.9692C192.878 73.4901 192.927 74.0357 193.051 74.631C193.188 75.2262 193.386 75.7347 193.659 76.1811C193.932 76.6276 194.254 76.9872 194.626 77.2601C194.998 77.5329 195.408 77.7065 195.854 77.7933C196.301 77.8801 196.784 77.8677 197.293 77.7561C197.938 77.6073 198.483 77.3221 198.917 76.888C199.351 76.454 199.723 75.9083 200.021 75.2386L203.741 77.4957C203.245 78.649 202.526 79.6163 201.559 80.3976C200.591 81.1789 199.401 81.7246 197.987 82.047H198Z" fill="#050E1A"/>
<path d="M211.009 79.4185C209.719 79.6293 208.528 79.5425 207.45 79.1581C206.371 78.7736 205.465 78.1535 204.746 77.2854C204.027 76.4174 203.555 75.3757 203.357 74.1355C203.159 72.8954 203.258 71.7545 203.667 70.7003C204.076 69.6586 204.734 68.7781 205.639 68.0837C206.544 67.3892 207.636 66.9303 208.925 66.7195C210.215 66.5087 211.406 66.5955 212.484 66.9675C213.576 67.3396 214.469 67.9597 215.188 68.8277C215.907 69.6958 216.366 70.75 216.564 71.9901C216.763 73.2302 216.664 74.3711 216.267 75.4252C215.858 76.467 215.2 77.3475 214.295 78.0543C213.39 78.7612 212.286 79.2201 210.996 79.4309L211.009 79.4185ZM206.507 65.963L208.665 61.9326L213.129 61.2009L209.62 65.4546L206.507 65.963ZM210.364 75.4749C210.711 75.4129 211.009 75.2764 211.257 75.0532C211.505 74.83 211.678 74.52 211.79 74.1231C211.889 73.7263 211.902 73.2674 211.827 72.7466C211.74 72.2133 211.579 71.7793 211.356 71.4568C211.133 71.1344 210.872 70.8988 210.562 70.7747C210.252 70.6383 209.93 70.6011 209.583 70.6631C209.235 70.7251 208.938 70.8616 208.69 71.0848C208.442 71.308 208.268 71.6056 208.156 71.9901C208.045 72.3621 208.032 72.821 208.119 73.3666C208.206 73.8875 208.355 74.3215 208.59 74.6564C208.814 74.9912 209.086 75.2268 209.384 75.3633C209.694 75.4997 210.017 75.5369 210.364 75.4749Z" fill="#050E1A"/>
<path d="M223.906 77.6571C222.914 77.7563 221.972 77.5951 221.066 77.1611C220.173 76.727 219.417 76.0573 218.822 75.1644C218.226 74.2591 217.854 73.143 217.718 71.8161C217.581 70.4891 217.718 69.3234 218.115 68.3189C218.512 67.3144 219.119 66.5083 219.913 65.9006C220.707 65.3054 221.599 64.9457 222.592 64.8465C223.596 64.7473 224.439 64.8837 225.134 65.2806C225.828 65.6774 226.374 66.3223 226.771 67.2276C227.18 68.1329 227.453 69.3234 227.602 70.7744C227.751 72.2501 227.738 73.4779 227.552 74.4576C227.366 75.4373 226.982 76.1814 226.386 76.7022C225.791 77.2231 224.973 77.5331 223.906 77.6447V77.6571ZM224.625 73.5647C224.973 73.5275 225.283 73.4035 225.543 73.1926C225.804 72.9818 226.002 72.6842 226.126 72.2997C226.25 71.9153 226.287 71.4564 226.238 70.9356C226.176 70.3899 226.052 69.9559 225.853 69.621C225.642 69.2862 225.394 69.0382 225.097 68.8894C224.799 68.7406 224.477 68.6785 224.129 68.7158C223.782 68.753 223.472 68.877 223.212 69.0878C222.951 69.2986 222.753 69.5838 222.629 69.9559C222.492 70.3279 222.455 70.7868 222.517 71.32C222.579 71.8409 222.703 72.2873 222.902 72.6346C223.112 72.9818 223.36 73.2422 223.658 73.391C223.956 73.5399 224.278 73.6019 224.625 73.5647ZM227.019 77.1114L226.845 75.4373L226.362 70.9232L225.68 66.4339L225.047 60.3821L229.784 59.886L231.521 76.6402L227.019 77.1114Z" fill="#050E1A"/>
<path d="M235.179 63.024C234.311 63.0612 233.604 62.8504 233.058 62.3791C232.513 61.9079 232.228 61.3002 232.19 60.5561C232.153 59.8121 232.389 59.1796 232.885 58.6587C233.381 58.1379 234.063 57.8526 234.931 57.8154C235.799 57.7782 236.506 57.9767 237.052 58.4231C237.597 58.8696 237.883 59.4648 237.92 60.1965C237.957 60.9778 237.721 61.6351 237.238 62.1683C236.742 62.7016 236.06 62.9868 235.191 63.024H235.179ZM233.43 76.5415L232.848 64.1401L237.597 63.9169L238.18 76.3182L233.43 76.5415Z" fill="#050E1A"/>
<path d="M245.076 75.3504C244.108 75.3628 243.203 75.1396 242.347 74.6559C241.504 74.1847 240.81 73.5026 240.276 72.6097C239.743 71.7292 239.458 70.6751 239.446 69.4474C239.421 68.2196 239.669 67.1531 240.165 66.2602C240.673 65.3549 241.343 64.6605 242.174 64.1644C243.005 63.6684 243.91 63.4079 244.877 63.3955C245.869 63.3707 246.688 63.5816 247.345 63.9908C247.99 64.4 248.474 65.0449 248.796 65.9378C249.119 66.8183 249.292 67.9344 249.317 69.2986C249.342 70.6627 249.205 71.7912 248.908 72.6717C248.61 73.5646 248.151 74.2219 247.519 74.6683C246.886 75.1148 246.08 75.338 245.076 75.3504ZM246.093 80.6458C244.952 80.6582 243.885 80.559 242.881 80.3109C241.876 80.0753 241.021 79.7033 240.289 79.1948L241.827 75.6729C242.285 76.0449 242.856 76.3301 243.563 76.5409C244.257 76.7518 244.915 76.851 245.535 76.8386C246.514 76.8262 247.209 76.5905 247.63 76.1317C248.052 75.6728 248.25 75.0404 248.226 74.1971V73.1554L248.35 69.2986L248.3 65.4418L248.263 63.5567L252.789 63.4823L252.951 73.4282C252.988 75.8341 252.405 77.6323 251.19 78.8104C249.974 80.0009 248.263 80.6086 246.055 80.6458H246.093ZM246.279 71.3448C246.663 71.3448 246.998 71.2456 247.283 71.0843C247.581 70.9107 247.804 70.6751 247.965 70.3651C248.126 70.055 248.201 69.7078 248.201 69.3234C248.201 68.9141 248.102 68.5669 247.928 68.2693C247.754 67.9716 247.519 67.7484 247.221 67.5996C246.924 67.4508 246.589 67.3764 246.204 67.3764C245.845 67.3764 245.51 67.4632 245.212 67.6368C244.915 67.798 244.679 68.0336 244.505 68.3313C244.332 68.6289 244.257 68.9885 244.257 69.3854C244.257 69.7822 244.356 70.1294 244.542 70.4271C244.729 70.7247 244.964 70.9603 245.274 71.1216C245.572 71.2828 245.919 71.3572 246.279 71.3572V71.3448Z" fill="#050E1A"/>
<path d="M260.986 76.4169C259.684 76.3673 258.543 76.0325 257.563 75.4496C256.584 74.8544 255.827 74.0607 255.294 73.0686C254.761 72.0765 254.513 70.9479 254.575 69.6954C254.624 68.4429 254.959 67.3391 255.579 66.3966C256.199 65.4541 257.018 64.7349 258.035 64.2264C259.064 63.7179 260.23 63.4947 261.532 63.5567C262.834 63.6063 263.987 63.9288 264.967 64.5116C265.947 65.0945 266.716 65.8882 267.237 66.8803C267.77 67.8724 268.005 68.9885 267.943 70.2535C267.894 71.506 267.559 72.6097 266.951 73.5522C266.344 74.4947 265.525 75.2264 264.483 75.7348C263.454 76.2433 262.276 76.4665 260.974 76.4169H260.986ZM261.147 72.4237C261.495 72.4361 261.817 72.3617 262.102 72.1881C262.388 72.0145 262.623 71.754 262.809 71.3944C262.995 71.0347 263.094 70.5883 263.119 70.0551C263.144 69.5094 263.082 69.0629 262.921 68.6909C262.772 68.3313 262.549 68.046 262.276 67.86C262.003 67.6616 261.693 67.5624 261.346 67.55C260.999 67.5376 260.676 67.612 260.391 67.7856C260.106 67.9592 259.87 68.2072 259.684 68.5669C259.498 68.9265 259.399 69.3606 259.374 69.9062C259.349 70.4395 259.424 70.8859 259.572 71.2704C259.721 71.6424 259.932 71.9277 260.205 72.1261C260.478 72.3245 260.788 72.4237 261.135 72.4361L261.147 72.4237Z" fill="#050E1A"/>
<path d="M269.505 72.0392L269.84 68.1948L276.128 68.7529L275.793 72.5973L269.505 72.0392Z" fill="#050E1A"/>
<path d="M284.958 78.7483C283.78 78.5747 282.713 78.2274 281.759 77.6818C280.804 77.1361 280.022 76.4416 279.39 75.586C278.757 74.7303 278.311 73.7878 278.038 72.7212C277.765 71.6547 277.716 70.5386 277.889 69.3481C278.063 68.1452 278.423 67.0786 278.968 66.1485C279.514 65.206 280.221 64.4247 281.052 63.7799C281.895 63.1474 282.85 62.6886 283.916 62.4281C284.983 62.1677 286.099 62.1181 287.29 62.2917C288.48 62.4653 289.559 62.825 290.502 63.3706C291.444 63.9163 292.238 64.6108 292.858 65.4665C293.49 66.3097 293.937 67.2647 294.21 68.3188C294.482 69.3729 294.532 70.5014 294.358 71.7043C294.197 72.8825 293.825 73.949 293.279 74.9039C292.721 75.8464 292.027 76.6401 291.184 77.2725C290.34 77.905 289.385 78.3638 288.331 78.6243C287.277 78.8847 286.149 78.9343 284.946 78.7607L284.958 78.7483ZM289.212 83.0392C288.53 82.94 287.91 82.7787 287.339 82.5555C286.781 82.3323 286.248 82.0099 285.739 81.6006C285.231 81.1914 284.722 80.6581 284.214 80.0008C283.693 79.3436 283.135 78.5251 282.515 77.5702L287.798 76.9377C288.058 77.5454 288.282 78.0042 288.468 78.3391C288.666 78.6739 288.865 78.9095 289.075 79.0707C289.286 79.2195 289.534 79.3188 289.832 79.356C290.551 79.4552 291.283 79.2196 292.002 78.6367L293.751 81.6378C292.523 82.8283 291.01 83.2872 289.212 83.0392ZM285.566 74.4574C286.025 74.5194 286.471 74.4946 286.88 74.3706C287.302 74.2466 287.686 74.0358 288.034 73.7382C288.381 73.4405 288.666 73.0685 288.902 72.5972C289.137 72.1384 289.299 71.5927 289.385 70.9851C289.472 70.365 289.472 69.8069 289.373 69.2985C289.274 68.79 289.1 68.3436 288.852 67.9591C288.604 67.5747 288.294 67.2771 287.922 67.0414C287.55 66.8058 287.141 66.657 286.682 66.595C286.223 66.533 285.789 66.5578 285.367 66.6818C284.946 66.8058 284.561 67.0166 284.214 67.3143C283.867 67.6119 283.569 67.9839 283.334 68.4552C283.098 68.914 282.937 69.4597 282.85 70.0674C282.763 70.6874 282.763 71.2455 282.862 71.7539C282.962 72.2624 283.135 72.7088 283.383 73.0933C283.631 73.4777 283.941 73.7754 284.313 74.011C284.685 74.2466 285.095 74.3954 285.553 74.4574H285.566Z" fill="#050E1A"/>
<path d="M294.779 79.9267L297.991 64.363L302.853 65.3676L300.484 76.8636L306.995 78.2029L306.152 82.2706L294.767 79.9267H294.779Z" fill="#050E1A"/>
<path d="M389.005 101.84L360.631 85.3831V65.9998L319.706 52.78C273.772 37.948 225.208 37.9728 179.274 52.8544L138.734 65.9998V85.3831L110.359 101.84L134.815 113.745L120.256 152.288L163.772 127.114L166.86 125.353L163.375 109.156L163.846 108.995L181.779 103.204C226.3 88.8183 273.363 88.8431 317.871 103.266L332.914 108.14V108.189L335.965 109.256L332.492 125.365L379.096 152.301L364.537 113.757L388.993 101.852L389.005 101.84ZM374.049 101.294L358.696 108.772C358.969 102.547 359.205 97.2884 359.403 92.8115L374.049 101.306V101.294ZM125.328 101.294L139.713 92.9479C139.899 97.3628 140.135 102.534 140.408 108.636L125.328 101.294ZM141.189 116.845H141.226L155.227 123.939L133.823 136.328L141.177 116.858L141.189 116.845ZM157.968 117.428L150.465 113.621L156.678 111.463L157.956 117.416L157.968 117.428ZM179.633 96.5071L163.921 101.579V101.53L161.614 102.323L155.203 104.543L147.402 107.247C146.832 94.2253 146.125 77.3471 145.951 71.072L181.456 59.5635C225.965 45.1284 273.028 45.1036 317.549 59.4891L353.178 70.9976C353.016 77.223 352.31 94.1757 351.727 107.259L344.174 104.642L320.066 96.5815C274.131 81.6999 225.58 81.6751 179.633 96.5195V96.5071ZM348.639 113.633L341.434 117.292L342.661 111.575L348.626 113.646L348.639 113.633ZM365.554 136.315L344.025 123.864L357.89 116.833L358.237 116.957L365.554 136.328V136.315Z" fill="#050E1A"/>
</svg>
