<svg width="313" height="125" viewBox="0 0 313 125" fill="none" xmlns="http://www.w3.org/2000/svg">
<path d="M98.6702 45.7905C97.3802 46.0805 96.1402 46.1305 94.9502 45.9305C93.7602 45.7405 92.6701 45.3304 91.6801 44.7004C90.6901 44.0704 89.8502 43.2504 89.1602 42.2404C88.4702 41.2304 87.9702 40.0605 87.6702 38.7205C87.3702 37.3805 87.3201 36.1105 87.5101 34.9005C87.7101 33.6905 88.1202 32.6005 88.7402 31.6005C89.3602 30.6105 90.1702 29.7704 91.1702 29.0904C92.1702 28.4104 93.3102 27.9204 94.6002 27.6304C96.1802 27.2804 97.6402 27.2605 98.9902 27.5805C100.34 27.9005 101.54 28.5405 102.59 29.4805L99.9102 33.5405C99.2902 33.0005 98.6502 32.6205 98.0002 32.3905C97.3502 32.1705 96.6602 32.1305 95.9402 32.2905C95.3702 32.4205 94.8802 32.6305 94.4702 32.9305C94.0602 33.2305 93.7301 33.6104 93.4801 34.0604C93.2401 34.5104 93.0802 35.0305 93.0202 35.6105C92.9602 36.1905 93.0001 36.8105 93.1501 37.4705C93.3001 38.1305 93.5202 38.7104 93.8302 39.2004C94.1302 39.7004 94.4902 40.1005 94.9102 40.4005C95.3202 40.7105 95.7801 40.9105 96.2901 41.0005C96.7901 41.0905 97.3301 41.0804 97.9001 40.9504C98.6201 40.7904 99.2302 40.4605 99.7202 39.9805C100.21 39.5005 100.63 38.8804 100.96 38.1304L105.12 40.6605C104.57 41.9505 103.76 43.0305 102.67 43.9005C101.59 44.7805 100.26 45.3905 98.6801 45.7505L98.6702 45.7905Z" fill="#050E1A"/>
<path d="M113.23 42.8505C111.79 43.0805 110.46 42.9905 109.26 42.5605C108.06 42.1305 107.04 41.4305 106.23 40.4705C105.42 39.5005 104.9 38.3305 104.67 36.9405C104.44 35.5505 104.56 34.2705 105.02 33.1005C105.48 31.9305 106.22 30.9505 107.23 30.1705C108.24 29.3905 109.47 28.8805 110.91 28.6405C112.35 28.4005 113.68 28.5005 114.89 28.9205C116.1 29.3405 117.11 30.0305 117.92 31.0005C118.72 31.9705 119.24 33.1405 119.46 34.5305C119.69 35.9205 119.57 37.1905 119.12 38.3705C118.67 39.5405 117.93 40.5205 116.92 41.3105C115.9 42.1005 114.68 42.6205 113.23 42.8505ZM108.2 27.8005L110.61 23.2905L115.61 22.4805L111.69 27.2405L108.2 27.8105V27.8005ZM112.51 38.4405C112.9 38.3805 113.23 38.2205 113.51 37.9705C113.79 37.7205 113.99 37.3705 114.11 36.9305C114.23 36.4905 114.24 35.9805 114.15 35.3905C114.05 34.7905 113.88 34.3105 113.63 33.9405C113.38 33.5805 113.08 33.3205 112.74 33.1705C112.4 33.0205 112.03 32.9805 111.64 33.0405C111.25 33.1005 110.92 33.2605 110.64 33.5105C110.36 33.7605 110.16 34.1005 110.04 34.5205C109.92 34.9405 109.91 35.4505 110 36.0605C110.09 36.6405 110.27 37.1305 110.52 37.5105C110.77 37.8905 111.07 38.1505 111.41 38.3005C111.75 38.4505 112.12 38.4905 112.51 38.4305V38.4405Z" fill="#050E1A"/>
<path d="M127.65 40.8905C126.54 41.0105 125.48 40.8205 124.48 40.3405C123.48 39.8605 122.64 39.1105 121.96 38.1005C121.29 37.0905 120.87 35.8405 120.72 34.3605C120.56 32.8805 120.72 31.5705 121.17 30.4505C121.62 29.3305 122.29 28.4205 123.18 27.7505C124.07 27.0805 125.06 26.6905 126.17 26.5705C127.3 26.4505 128.24 26.6205 129.02 27.0505C129.79 27.4905 130.4 28.2205 130.86 29.2305C131.31 30.2505 131.62 31.5705 131.79 33.2005C131.96 34.8505 131.94 36.2205 131.73 37.3205C131.52 38.4105 131.09 39.2505 130.43 39.8305C129.77 40.4105 128.85 40.7605 127.66 40.8805L127.65 40.8905ZM128.46 36.3105C128.85 36.2705 129.19 36.1305 129.49 35.9005C129.78 35.6705 130 35.3305 130.14 34.9005C130.28 34.4705 130.33 33.9605 130.26 33.3705C130.2 32.7605 130.05 32.2705 129.82 31.9005C129.59 31.5205 129.31 31.2505 128.98 31.0805C128.65 30.9105 128.29 30.8505 127.89 30.8905C127.5 30.9305 127.16 31.0705 126.87 31.3005C126.58 31.5305 126.36 31.8605 126.21 32.2705C126.06 32.6905 126.02 33.2005 126.08 33.8005C126.14 34.3905 126.29 34.8805 126.52 35.2705C126.75 35.6605 127.03 35.9405 127.37 36.1105C127.7 36.2805 128.07 36.3405 128.46 36.3005V36.3105ZM131.14 40.2705L130.95 38.4005L130.4 33.3505L129.64 28.3205L128.94 21.5505L134.24 21.0005L136.18 39.7405L131.14 40.2605V40.2705Z" fill="#050E1A"/>
<path d="M140.27 24.5103C139.3 24.5603 138.51 24.3203 137.9 23.7803C137.29 23.2503 136.97 22.5703 136.93 21.7403C136.89 20.9103 137.15 20.2003 137.7 19.6203C138.25 19.0303 139.02 18.7203 139.99 18.6703C140.96 18.6203 141.75 18.8503 142.36 19.3503C142.96 19.8503 143.29 20.5103 143.32 21.3403C143.36 22.2203 143.1 22.9603 142.55 23.5503C142 24.1403 141.23 24.4603 140.26 24.5103H140.27ZM138.32 39.6303L137.67 25.7503L142.99 25.5003L143.64 39.3803L138.32 39.6303Z" fill="#050E1A"/>
<path d="M151.34 38.3102C150.25 38.3302 149.24 38.0702 148.29 37.5402C147.34 37.0102 146.56 36.2402 145.97 35.2602C145.37 34.2702 145.06 33.0902 145.04 31.7202C145.02 30.3502 145.29 29.1602 145.85 28.1502C146.42 27.1402 147.16 26.3602 148.1 25.8002C149.03 25.2402 150.04 24.9502 151.13 24.9402C152.24 24.9202 153.16 25.1402 153.88 25.6002C154.6 26.0602 155.14 26.7902 155.51 27.7702C155.87 28.7502 156.07 30.0102 156.09 31.5302C156.12 33.0502 155.97 34.3102 155.64 35.3102C155.31 36.3102 154.79 37.0502 154.09 37.5402C153.38 38.0402 152.47 38.2902 151.36 38.3102H151.34ZM152.48 44.2302C151.21 44.2502 150.01 44.1302 148.89 43.8602C147.77 43.5902 146.81 43.1802 145.99 42.6102L147.71 38.6702C148.22 39.0902 148.87 39.4102 149.65 39.6402C150.43 39.8702 151.17 39.9802 151.86 39.9702C152.96 39.9502 153.74 39.6902 154.2 39.1802C154.66 38.6702 154.89 37.9502 154.87 37.0202L154.85 35.8502L155.01 31.5302L154.96 27.2102L154.92 25.1002L159.98 25.0202L160.17 36.1402C160.22 38.8302 159.56 40.8402 158.2 42.1702C156.84 43.5002 154.93 44.1802 152.46 44.2202L152.48 44.2302ZM152.68 33.8102C153.1 33.8102 153.48 33.7002 153.81 33.5102C154.14 33.3202 154.39 33.0502 154.57 32.7102C154.75 32.3702 154.84 31.9802 154.83 31.5402C154.83 31.0802 154.72 30.6902 154.53 30.3602C154.34 30.0302 154.07 29.7802 153.74 29.6102C153.41 29.4402 153.03 29.3502 152.61 29.3602C152.2 29.3602 151.83 29.4602 151.49 29.6502C151.16 29.8302 150.89 30.0902 150.7 30.4302C150.51 30.7602 150.42 31.1602 150.43 31.6202C150.43 32.0602 150.54 32.4502 150.75 32.7802C150.95 33.1202 151.22 33.3702 151.56 33.5502C151.9 33.7302 152.28 33.8202 152.68 33.8102Z" fill="#050E1A"/>
<path d="M169.13 39.5003C167.67 39.4403 166.39 39.0803 165.3 38.4103C164.2 37.7503 163.35 36.8603 162.76 35.7503C162.16 34.6403 161.89 33.3803 161.95 31.9803C162.01 30.5803 162.38 29.3503 163.07 28.2903C163.76 27.2303 164.68 26.4203 165.82 25.8603C166.97 25.3003 168.27 25.0503 169.73 25.1103C171.19 25.1703 172.47 25.5303 173.58 26.1903C174.69 26.8503 175.53 27.7303 176.12 28.8403C176.71 29.9503 176.97 31.2103 176.92 32.6103C176.86 34.0203 176.49 35.2503 175.81 36.3003C175.13 37.3603 174.21 38.1703 173.05 38.7403C171.89 39.3103 170.59 39.5603 169.13 39.5003ZM169.32 35.0303C169.71 35.0503 170.07 34.9603 170.39 34.7703C170.71 34.5803 170.98 34.2803 171.18 33.8803C171.39 33.4703 171.5 32.9703 171.52 32.3803C171.55 31.7703 171.47 31.2703 171.3 30.8603C171.13 30.4603 170.89 30.1403 170.58 29.9303C170.28 29.7103 169.93 29.6003 169.53 29.5803C169.14 29.5603 168.78 29.6503 168.46 29.8403C168.14 30.0303 167.87 30.3203 167.67 30.7103C167.47 31.1003 167.35 31.6003 167.32 32.2103C167.3 32.8003 167.37 33.3103 167.54 33.7303C167.71 34.1503 167.95 34.4703 168.25 34.6903C168.56 34.9103 168.9 35.0203 169.3 35.0403L169.32 35.0303Z" fill="#050E1A"/>
<path d="M178.68 34.59L179.06 30.29L186.1 30.91L185.72 35.21L178.68 34.59Z" fill="#050E1A"/>
<path d="M195.95 42.1005C194.63 41.9105 193.44 41.5105 192.37 40.9005C191.31 40.2905 190.42 39.5105 189.71 38.5605C189 37.6105 188.5 36.5505 188.2 35.3605C187.9 34.1705 187.84 32.9205 188.03 31.5905C188.22 30.2505 188.62 29.0505 189.24 28.0005C189.86 26.9505 190.64 26.0705 191.58 25.3605C192.52 24.6505 193.59 24.1505 194.78 23.8505C195.97 23.5605 197.23 23.5105 198.55 23.6905C199.89 23.8805 201.08 24.2805 202.14 24.8905C203.2 25.5005 204.08 26.2805 204.78 27.2305C205.49 28.1805 205.99 29.2405 206.29 30.4205C206.59 31.6005 206.65 32.8605 206.46 34.2005C206.27 35.5205 205.87 36.7105 205.25 37.7705C204.63 38.8305 203.85 39.7105 202.91 40.4305C201.97 41.1405 200.9 41.6505 199.72 41.9405C198.54 42.2305 197.28 42.2905 195.94 42.1005H195.95ZM200.72 46.9105C199.96 46.8005 199.26 46.6205 198.63 46.3705C198 46.1205 197.4 45.7605 196.84 45.3105C196.28 44.8505 195.71 44.2605 195.13 43.5205C194.55 42.7805 193.92 41.8705 193.23 40.8005L199.13 40.1005C199.41 40.7705 199.67 41.3005 199.88 41.6705C200.1 42.0405 200.33 42.3105 200.56 42.4805C200.8 42.6505 201.08 42.7605 201.4 42.8005C202.21 42.9205 203.02 42.6405 203.82 41.9905L205.77 45.3505C204.39 46.6805 202.7 47.2005 200.7 46.9105H200.72ZM196.63 37.3005C197.14 37.3705 197.64 37.3405 198.11 37.2005C198.58 37.0605 199.01 36.8305 199.4 36.5005C199.79 36.1705 200.11 35.7505 200.38 35.2305C200.64 34.7105 200.82 34.1105 200.92 33.4205C201.02 32.7305 201.01 32.1005 200.9 31.5305C200.79 30.9605 200.6 30.4605 200.32 30.0405C200.04 29.6205 199.69 29.2705 199.28 29.0105C198.86 28.7505 198.4 28.5805 197.89 28.5105C197.38 28.4405 196.89 28.4705 196.41 28.6105C195.94 28.7505 195.51 28.9805 195.12 29.3105C194.73 29.6405 194.4 30.0605 194.14 30.5805C193.88 31.1005 193.7 31.7005 193.6 32.3905C193.5 33.0805 193.51 33.7105 193.62 34.2805C193.73 34.8505 193.92 35.3505 194.21 35.7705C194.49 36.1905 194.84 36.5405 195.25 36.8005C195.67 37.0605 196.13 37.2305 196.64 37.3105L196.63 37.3005Z" fill="#050E1A"/>
<path d="M206.94 43.4202L210.53 26.0103L215.97 27.1302L213.32 39.9902L220.61 41.4902L219.67 46.0403L206.93 43.4103L206.94 43.4202Z" fill="#050E1A"/>
<path d="M312.36 67.9401L280.62 49.5301V27.8401L234.83 13.0501C183.44 -3.5499 129.11 -3.5199 77.7301 13.1401L32.3801 27.8401V49.5301L0.640137 67.9401L28.0001 81.2601L11.7101 124.37L60.3901 96.2101L63.8401 94.2401L59.9401 76.1201L60.4701 75.9401L80.5301 69.4601C130.33 53.3701 182.98 53.3901 232.78 69.5301L249.61 74.9801L249.59 75.0301L253.02 76.2201L249.14 94.2501L301.28 124.38L284.99 81.2701L312.35 67.9501L312.36 67.9401ZM295.62 67.3301L278.45 75.6901C278.76 68.7301 279.02 62.8401 279.23 57.8301L295.62 67.3301ZM17.3801 67.3301L33.4701 58.0001C33.6801 62.9401 33.9401 68.7201 34.2401 75.5401L17.3701 67.3301H17.3801ZM35.1101 84.7201H35.1501L50.8201 92.6501L26.8801 106.5L35.1101 84.7101V84.7201ZM53.8901 85.3801L45.5001 81.1201L52.4601 78.7101L53.8901 85.3701V85.3801ZM78.1201 61.9601L60.5401 67.6401L60.5201 67.5901L57.9601 68.4801L50.7901 70.9601L42.0601 73.9801C41.4201 59.4101 40.6301 40.5401 40.4401 33.5101L80.1601 20.6301C129.95 4.4901 182.6 4.4601 232.41 20.5401L272.26 33.4101C272.08 40.3701 271.29 59.3401 270.64 73.9801L262.19 71.0501L235.22 62.0301C183.84 45.3801 129.51 45.3601 78.1201 61.9601ZM267.2 81.1201L259.15 85.2101L260.53 78.8101L267.21 81.1201H267.2ZM286.12 106.51L262.04 92.5801L277.55 84.7101L277.94 84.8401L286.13 106.51H286.12Z" fill="#050E1A"/>
</svg>
